<svg xmlns="http://www.w3.org/2000/svg" xmlns:xlink="http://www.w3.org/1999/xlink" id="Layer_1" width="664" height="354" x="0" y="0" enable-background="new 0 0 664 354" version="1.1" viewBox="0 0 664 354" xml:space="preserve"><g><rect width="100" height="127" x="33" y="111" fill="#DCDEE0"/><rect width="100" height="127" x="33" y="111" fill="none" stroke="#85888D" stroke-width="2"/><line x1="46" x2="120" y1="131" y2="131" fill="none" stroke="#000" stroke-width="2"/><line x1="46" x2="120" y1="137" y2="137" fill="none" stroke="#000" stroke-width="2"/><line x1="46" x2="120" y1="142" y2="142" fill="none" stroke="#000" stroke-width="2"/><line x1="46" x2="120" y1="154" y2="154" fill="none" stroke="#000" stroke-width="2"/><rect width="100" height="127" x="500" y="111" fill="#DCDEE0"/><rect width="100" height="127" x="500" y="111" fill="none" stroke="#85888D" stroke-width="2"/><line x1="513" x2="587" y1="131" y2="131" fill="none" stroke="#000" stroke-width="2"/><line x1="513" x2="587" y1="137" y2="137" fill="none" stroke="#000" stroke-width="2"/><line x1="513" x2="587" y1="142" y2="142" fill="none" stroke="#000" stroke-width="2"/><line x1="513" x2="587" y1="154" y2="154" fill="none" stroke="#000" stroke-width="2"/><rect width="100" height="128" x="255" y="23" fill="#DCDEE0"/><rect width="100" height="128" x="255" y="23" fill="none" stroke="#85888D" stroke-width="2"/><line x1="268" x2="342" y1="43" y2="43" fill="none" stroke="#000" stroke-width="2"/><line x1="268" x2="342" y1="49" y2="49" fill="none" stroke="#000" stroke-width="2"/><line x1="268" x2="342" y1="55" y2="55" fill="none" stroke="#000" stroke-width="2"/><line x1="268" x2="342" y1="67" y2="67" fill="none" stroke="#70BF41" stroke-width="2"/><line x1="157" x2="231" y1="59" y2="59" fill="none" stroke="#70BF41" stroke-width="2"/><line x1="392.763" x2="466.763" y1="59" y2="59" fill="none" stroke="#70BF41" stroke-width="2"/><line x1="461.52" x2="535.52" y1="172.158" y2="172.158" fill="none" stroke="#70BF41" stroke-width="2"/><polygon fill="#45BEEE" points="203.427 125.067 207.724 139.122 237.382 98.616 190.144 81.62 194.44 95.675 153.541 108.179 162.527 137.571"/><polygon fill="#45BEEE" points="437.427 238.712 441.724 252.767 471.382 212.261 424.144 195.265 428.44 209.319 387.541 221.824 396.527 251.216"/><rect width="100" height="128" x="255" y="203" fill="#DCDEE0"/><rect width="100" height="128" x="255" y="203" fill="none" stroke="#85888D" stroke-width="2"/><line x1="268" x2="342" y1="223" y2="223" fill="none" stroke="#000" stroke-width="2"/><line x1="268" x2="342" y1="229" y2="229" fill="none" stroke="#000" stroke-width="2"/><line x1="268" x2="342" y1="235" y2="235" fill="none" stroke="#000" stroke-width="2"/><line x1="268" x2="342" y1="247" y2="247" fill="none" stroke="#C82506" stroke-width="2"/><polygon fill="#45BEEE" points="194.44 238.713 190.144 252.767 237.382 235.771 207.724 195.266 203.427 209.32 162.527 196.815 153.541 226.208"/><polygon fill="#45BEEE" points="428.44 125.068 424.144 139.121 471.382 122.125 441.724 81.621 437.427 95.675 396.527 83.17 387.541 112.563"/><line x1="268" x2="342" y1="253" y2="253" fill="none" stroke="#C82506" stroke-width="2"/><line x1="158" x2="231" y1="268" y2="268" fill="none" stroke="#C82506" stroke-width="2"/><line x1="158" x2="231" y1="274" y2="274" fill="none" stroke="#C82506" stroke-width="2"/><line x1="393" x2="466" y1="268" y2="268" fill="none" stroke="#C82506" stroke-width="2"/><line x1="393" x2="466" y1="274" y2="274" fill="none" stroke="#C82506" stroke-width="2"/><line x1="568.678" x2="641.678" y1="180.189" y2="180.189" fill="none" stroke="#C82506" stroke-width="2"/><line x1="568.678" x2="641.678" y1="186.189" y2="186.189" fill="none" stroke="#C82506" stroke-width="2"/><path d="M546.585,185.594l-0.043-1.123c-0.13-2.203,0.604-4.45,2.549-6.739c1.382-1.685,2.506-3.11,2.506-4.536 c0-1.512-0.994-2.548-3.154-2.592c-1.425,0-3.153,0.519-4.276,1.296l-1.469-4.708c1.599-0.907,4.147-1.771,7.214-1.771 c5.702,0,8.338,3.153,8.338,6.739c0,3.283-2.074,5.442-3.716,7.257c-1.555,1.771-2.246,3.456-2.202,5.399v0.778H546.585z M545.462,191.598c0-2.332,1.599-3.931,3.845-3.931c2.333,0,3.845,1.599,3.888,3.931c0,2.246-1.512,3.932-3.888,3.932 C547.018,195.529,545.462,193.844,545.462,191.598z"/></g></svg>