<svg xmlns="http://www.w3.org/2000/svg" xmlns:svg="http://www.w3.org/2000/svg" id="svg2" width="610" height="500" x="0" y="0" enable-background="new 0 0 622 452" version="1.1" viewBox="0 0 610 500" xml:space="preserve"><metadata id="metadata134"/><g id="g3573" transform="translate(-4.1425018,-9)"><g id="g3564"><g id="g3490" transform="translate(0,250)"><rect id="rect3492" width="603.785" height="244" x="7" y="12" stroke-miterlimit="10" style="fill:#fff;stroke:#000;stroke-miterlimit:10"/></g><g id="g3494" transform="translate(0,250)"><path id="path3496" stroke-miterlimit="10" d="m 598,63 c 0,-8.284 -6.716,-15 -15,-15 l -385,0 c -8.284,0 -15,6.716 -15,15 l 0,167 c 0,8.284 6.716,15 15,15 l 385,0 c 8.284,0 15,-6.716 15,-15 l 0,-167 z" style="fill:#b5b5b5;stroke:#fff;stroke-miterlimit:10"/><rect id="rect3498" width="70" height="28" x="197" y="59" style="fill:none"/><text id="text3500" font-size="18" transform="translate(197,71.4199)" style="font-size:18px;font-family:Consolas">.git</text></g><text id="text3502" x="16" y="278.707" font-size="13.5" style="font-size:13.5px;font-family:Helvetica">https://github.com/vlad/planets.git</text></g><g id="g3504"><g id="Layer_6"><rect id="rect5" width="603.785" height="244" x="7" y="12" stroke-miterlimit="10" style="fill:#fff;stroke:#000;stroke-miterlimit:10"/></g><g id="g8"><path style="fill:#b5b5b5;stroke:#fff;stroke-miterlimit:10" id="path10" stroke-miterlimit="10" d="m 598,63 c 0,-8.284 -6.716,-15 -15,-15 l -385,0 c -8.284,0 -15,6.716 -15,15 l 0,167 c 0,8.284 6.716,15 15,15 l 385,0 c 8.284,0 15,-6.716 15,-15 l 0,-167 z"/><rect style="fill:none" id="rect12" width="70" height="28" x="197" y="59"/><text style="font-size:18px;font-family:Consolas" id="text14" font-size="18" transform="translate(197,71.4199)">.git</text></g><rect style="fill:none" id="rect16" width="195.585" height="24.449" x="16" y="19"/><text style="font-size:13.5px;font-family:Helvetica" id="text18" x="16" y="28.707" font-size="13.5">~/vlad/planets</text><g id="Layer_3"><g id="g37"><linearGradient id="SVGID_1_" x1="303.499" x2="303.499" y1="123.986" y2="179.235" gradientUnits="userSpaceOnUse"><stop style="stop-color:#c4c4c4" id="stop40" offset=".098"/><stop style="stop-color:#686868" id="stop42" offset=".533"/><stop style="stop-color:#000" id="stop44" offset="1"/></linearGradient><path id="path46" stroke-miterlimit="10" d="m 253.453,178.205 c 0,-9.264 22.404,-16.777 50.047,-16.777 27.643,0 50.045,7.514 50.045,16.777 l 0,1.029 c 0,0 0,-2.115 0,-3.117 0,-1.007 0,-35.745 0,-35.745 l 0,0.394 c 0,-9.27 -22.402,-16.78 -50.045,-16.78 -27.643,0 -50.047,7.51 -50.047,16.78 l 0,-0.394 c 0,0 0,34.519 0,35.733 0,1.205 0,3.129 0,3.129 l 0,-1.029 z" style="fill:url(#SVGID_1_);stroke:#231f20;stroke-miterlimit:10"/><g id="g48"><path id="path50" stroke-miterlimit="10" d="m 353.545,140.373 c 0,0 0,34.738 0,35.745 0,1.002 0.355,3.117 0.355,3.117 0,9.27 -22.758,16.779 -50.4,16.779 -27.642,0 -50.4,-7.51 -50.4,-16.779 0,0 0.354,-1.924 0.354,-3.129 0,-1.214 0,-35.733 0,-35.733 0,9.274 22.404,16.785 50.047,16.785 27.643,0 50.044,-7.511 50.044,-16.785 z" style="fill:#fff;stroke:#231f20;stroke-miterlimit:10"/></g></g><g id="g52"><polygon id="polygon54" stroke-miterlimit="10" points="328.542 149.459 341.719 134.965 282.411 134.965 269.235 149.459" style="fill:#fff;stroke:#000;stroke-miterlimit:10"/><line id="line56" x1="282.411" x2="331.165" y1="140.894" y2="140.894" style="fill:none;stroke:#70bf41;stroke-width:2"/></g></g><g id="Layer_4"><linearGradient id="SVGID_2_" x1="537.177" x2="537.177" y1="57.66" y2="112.913" gradientUnits="userSpaceOnUse"><stop style="stop-color:#c4c4c4" id="stop60" offset=".098"/><stop style="stop-color:#686868" id="stop62" offset=".533"/><stop style="stop-color:#000" id="stop64" offset="1"/></linearGradient><path id="path66" stroke-miterlimit="10" d="m 487.13,111.882 c 0,-9.268 22.407,-16.781 50.047,-16.781 27.641,0 50.047,7.513 50.047,16.781 l 0,1.03 c 0,0 0,-2.118 0,-3.121 0,-1.003 0,-35.739 0,-35.739 l 0,0.388 c 0,-9.268 -22.406,-16.781 -50.047,-16.781 -27.64,0 -50.047,7.513 -50.047,16.781 l 0,-0.388 c 0,0 0,34.519 0,35.728 0,1.209 0,3.132 0,3.132 l 0,-1.03 z" style="fill:url(#SVGID_2_);stroke:#231f20;stroke-miterlimit:10"/><g id="g68"><path id="path70" stroke-miterlimit="10" d="m 587.021,151.283 c 0,0 0,34.738 0,35.74 0,1.002 0.354,3.121 0.354,3.121 0,9.268 -22.76,16.779 -50.4,16.779 -27.64,0 -50.399,-7.512 -50.399,-16.779 0,0 0.353,-1.924 0.353,-3.133 0,-1.209 0,-35.729 0,-35.729 0,9.268 22.407,16.781 50.047,16.781 27.638,0.001 50.045,-7.512 50.045,-16.78 z" style="fill:#fff;stroke:#231f20;stroke-miterlimit:10"/></g><g id="g72"><path id="path74" stroke-miterlimit="10" d="m 587.021,112.601 c 0,0 0,34.736 0,35.739 0,1.002 0.354,3.121 0.354,3.121 0,9.268 -22.76,16.779 -50.4,16.779 -27.64,0 -50.399,-7.512 -50.399,-16.779 0,0 0.353,-1.923 0.353,-3.132 0,-1.209 0,-35.728 0,-35.728 0,9.268 22.407,16.78 50.047,16.78 27.638,0 50.045,-7.512 50.045,-16.78 z" style="fill:#fff;stroke:#231f20;stroke-miterlimit:10"/></g><g id="g76"><path id="path78" stroke-miterlimit="10" d="m 587.021,73.628 c 0,0 0,34.737 0,35.739 0,1.002 0.354,3.12 0.354,3.12 0,9.269 -22.76,16.781 -50.4,16.781 -27.64,0 -50.399,-7.513 -50.399,-16.781 0,0 0.353,-1.922 0.353,-3.131 0,-1.209 0,-35.728 0,-35.728 0,9.268 22.407,16.78 50.047,16.78 27.638,0.001 50.045,-7.512 50.045,-16.78 z" style="fill:#fff;stroke:#231f20;stroke-miterlimit:10"/></g><g id="g80"><polygon id="polygon82" stroke-miterlimit="10" points="560.039 80.875 573.216 66.381 513.908 66.381 500.732 80.875" style="fill:#fff;stroke:#000;stroke-miterlimit:10"/><line id="line84" x1="513.908" x2="562.662" y1="72.311" y2="72.311" style="fill:none;stroke:#70bf41;stroke-width:2"/></g></g><g id="Layer_1"><g id="g87"><rect id="rect89" width="100" height="128" x="24" y="85" style="fill:#dcdee0"/><rect id="rect91" width="100" height="128" x="24" y="85" style="fill:none;stroke:#85888d;stroke-width:2"/><line id="line93" x1="37" x2="111" y1="105" y2="105" style="fill:none;stroke:#000;stroke-width:2"/><line id="line95" x1="37" x2="111" y1="111" y2="111" style="fill:none;stroke:#000;stroke-width:2"/><line id="line97" x1="37" x2="111" y1="117" y2="117" style="fill:none;stroke:#000;stroke-width:2"/><line id="line99" x1="37" x2="111" y1="129" y2="129" style="fill:none;stroke:#70bf41;stroke-width:2"/></g></g><g id="Layer_2"><g id="g102"><rect id="rect104" width="45.956" height="30.604" x="150.871" y="136.768" style="fill:#45beee"/><polygon id="polygon106" points="234.02 151.163 193.467 121.571 193.467 181.695" style="fill:#45beee"/></g><rect id="rect108" width="52.743" height="14" x="164" y="146.069" style="fill:none"/><text id="text110" font-size="12" transform="translate(164,154.3496)" style="font-size:12px;font-family:Consolas">git add</text><g id="g112"><rect id="rect114" width="45.956" height="30.604" x="381.251" y="136.768" style="fill:#45beee"/><polygon id="polygon116" points="464.399 151.163 423.847 121.571 423.847 181.695" style="fill:#45beee"/></g><rect id="rect118" width="85.542" height="14" x="376.98" y="146.069" style="fill:none"/><text id="text120" font-size="12" transform="translate(386.7637,154.3496)" style="font-size:12px;font-family:Consolas">git commit</text><rect id="rect122" width="147" height="17" x="229" y="206" style="fill:none"/><text id="text124" font-size="12" transform="translate(269.4766,214.6279)" style="font-size:12px;font-family:Helvetica">staging area</text><rect id="rect126" width="147" height="17" x="464.785" y="219" style="fill:none"/><text id="text128" font-size="12" transform="translate(511.9414,227.6279)" style="font-size:12px;font-family:Helvetica">repository</text></g></g></g></svg>