<svg xmlns="http://www.w3.org/2000/svg" xmlns:xlink="http://www.w3.org/1999/xlink" width="622" height="355" x="0" y="0" enable-background="new 0 0 622 355" version="1.1" viewBox="0 0 622 355" xml:space="preserve"><g id="Layer_5"><path fill="#B5B5B5" stroke="#FFF" stroke-miterlimit="10" d="M290,43c0-8.284-6.716-15-15-15H60c-8.284,0-15,6.716-15,15v257 c0,8.284,6.716,15,15,15h215c8.284,0,15-6.716,15-15V43z"/><rect width="70" height="28" x="60" y="41" fill="none"/><text font-family="'Consolas'" font-size="18" transform="matrix(1 0 0 1 60 53.4199)">.git</text></g><g id="Layer_4"><linearGradient id="SVGID_1_" x1="167.391" x2="167.391" y1="84.66" y2="139.913" gradientUnits="userSpaceOnUse"><stop offset=".098" style="stop-color:#c4c4c4"/><stop offset=".533" style="stop-color:#686868"/><stop offset="1" style="stop-color:#000"/></linearGradient><path fill="url(#SVGID_1_)" stroke="#231F20" stroke-miterlimit="10" d="M117.345,138.883c0-9.268,22.407-16.781,50.047-16.781 c27.641,0,50.047,7.514,50.047,16.781v1.029c0,0,0-2.117,0-3.12s0-35.739,0-35.739v0.389c0-9.268-22.406-16.781-50.047-16.781 c-27.64,0-50.047,7.514-50.047,16.781v-0.389c0,0,0,34.52,0,35.729s0,3.131,0,3.131V138.883z"/><linearGradient id="SVGID_2_" x1="167.391" x2="167.391" y1="154.66" y2="209.912" gradientUnits="userSpaceOnUse"><stop offset=".098" style="stop-color:#c4c4c4"/><stop offset=".533" style="stop-color:#686868"/><stop offset="1" style="stop-color:#000"/></linearGradient><path fill="url(#SVGID_2_)" stroke="#231F20" stroke-miterlimit="10" d="M117.345,208.883c0-9.268,22.407-16.781,50.047-16.781 c27.641,0,50.047,7.514,50.047,16.781v1.029c0,0,0-2.117,0-3.12s0-35.739,0-35.739v0.389c0-9.268-22.406-16.781-50.047-16.781 c-27.64,0-50.047,7.514-50.047,16.781v-0.389c0,0,0,34.52,0,35.729s0,3.131,0,3.131V208.883z"/><g><path fill="#FFF" stroke="#231F20" stroke-miterlimit="10" d="M217.235,208.283c0,0,0,34.738,0,35.74s0.354,3.121,0.354,3.121 c0,9.268-22.76,16.779-50.4,16.779c-27.64,0-50.399-7.512-50.399-16.779c0,0,0.353-1.924,0.353-3.133s0-35.729,0-35.729 c0,9.268,22.407,16.781,50.047,16.781C194.829,225.064,217.235,217.551,217.235,208.283z"/></g><g><path fill="#FFF" stroke="#231F20" stroke-miterlimit="10" d="M217.235,169.602c0,0,0,34.736,0,35.738s0.354,3.121,0.354,3.121 c0,9.268-22.76,16.779-50.4,16.779c-27.64,0-50.399-7.512-50.399-16.779c0,0,0.353-1.924,0.353-3.133s0-35.727,0-35.727 c0,9.268,22.407,16.779,50.047,16.779C194.829,186.381,217.235,178.869,217.235,169.602z"/></g><g><polygon fill="#FFF" stroke="#000" stroke-miterlimit="10" points="204.086 165.774 144.778 165.774 131.603 180.269 190.909 180.269"/><line x1="145.778" x2="194.532" y1="169.704" y2="169.704" fill="none" stroke="#B285BC" stroke-width="2"/><line x1="141.778" x2="190.532" y1="174.704" y2="174.704" fill="none" stroke="#B285BC" stroke-width="2"/></g><g><polygon fill="#FFF" stroke="#000" stroke-miterlimit="10" points="202.775 156 143.468 156 130.292 170.494 189.599 170.494"/><line x1="143.468" x2="192.222" y1="161.93" y2="161.93" fill="none" stroke="#70BF41" stroke-width="2"/></g><g><path fill="#FFF" stroke="#231F20" stroke-miterlimit="10" d="M217.235,100.629c0,0,0,34.736,0,35.738 c0,1.003,0.354,3.121,0.354,3.121c0,9.268-22.76,16.781-50.4,16.781c-27.64,0-50.399-7.514-50.399-16.781 c0,0,0.353-1.923,0.353-3.132s0-35.728,0-35.728c0,9.268,22.407,16.779,50.047,16.779 C194.829,117.408,217.235,109.896,217.235,100.629z"/></g></g><g id="Layer_1"><g><g><rect width="100" height="128" x="462" y="35" fill="#DCDEE0"/><rect width="100" height="128" x="462" y="35" fill="none" stroke="#85888D" stroke-width="2"/><line x1="475" x2="549" y1="55" y2="55" fill="none" stroke="#000" stroke-width="2"/><line x1="475" x2="549" y1="61" y2="61" fill="none" stroke="#000" stroke-width="2"/><line x1="475" x2="549" y1="67" y2="67" fill="none" stroke="#000" stroke-width="2"/><line x1="475" x2="549" y1="79" y2="79" fill="none" stroke="#70BF41" stroke-width="2"/></g><rect width="92.742" height="14" x="465.629" y="149" fill="none"/><text font-family="'Consolas'" font-size="12" transform="matrix(1 0 0 1 482.3105 157.2803)">FILE1.txt</text></g><g><rect width="100" height="128" x="462" y="176" fill="#DCDEE0"/><rect width="100" height="128" x="462" y="176" fill="none" stroke="#85888D" stroke-width="2"/><line x1="475" x2="549" y1="196" y2="196" fill="none" stroke="#000" stroke-width="2"/><line x1="475" x2="549" y1="202" y2="202" fill="none" stroke="#000" stroke-width="2"/><line x1="475" x2="549" y1="208" y2="208" fill="none" stroke="#000" stroke-width="2"/><line x1="475" x2="549" y1="237.514" y2="237.514" fill="none" stroke="#000" stroke-width="2"/><line x1="475" x2="549" y1="243.514" y2="243.514" fill="none" stroke="#000" stroke-width="2"/><line x1="475" x2="549" y1="249.514" y2="249.514" fill="none" stroke="#000" stroke-width="2"/><line x1="475" x2="549" y1="220" y2="220" fill="none" stroke="#B285BC" stroke-width="2"/><line x1="475" x2="549" y1="226" y2="226" fill="none" stroke="#B285BC" stroke-width="2"/><rect width="92.742" height="14" x="465.629" y="290" fill="none"/><text font-family="'Consolas'" font-size="12" transform="matrix(1 0 0 1 482.3105 298.2803)">FILE2.txt</text></g><rect width="54.512" height="18.362" x="54" y="106.804" fill="none"/><text fill="#231F20" font-family="'Consolas'" font-size="13.77" transform="matrix(1 0 0 1 66.1143 116.3052)">HEAD</text><rect width="54.512" height="18.362" x="54" y="183.696" fill="none"/><text fill="#231F20" font-family="'Consolas'" font-size="13.77" transform="matrix(1 0 0 1 58.5435 193.1973)">HEAD~1</text><rect width="54.512" height="18.362" x="54" y="230.833" fill="none"/><text fill="#231F20" font-family="'Consolas'" font-size="13.77" transform="matrix(1 0 0 1 58.5435 240.334)">HEAD~2</text><rect width="42.712" height="10.2" x="144.799" y="241.939" fill="none"/><text fill="#231F20" font-family="'Consolas'" font-size="8.606" transform="matrix(1 0 0 1 149.5942 247.8779)">892134f</text><rect width="42.712" height="10.2" x="144.799" y="200.056" fill="none"/><text fill="#231F20" font-family="'Consolas'" font-size="8.606" transform="matrix(1 0 0 1 149.5942 205.9941)">f22b25e</text><rect width="42.712" height="10.2" x="144.799" y="127.859" fill="none"/><text fill="#231F20" font-family="'Consolas'" font-size="8.606" transform="matrix(1 0 0 1 149.5942 133.7979)">3a54f76</text></g><g id="Layer_2"><g><g><rect width="135.956" height="30.604" x="265.466" y="173.768" fill="#45BEEE"/><polygon fill="#45BEEE" points="398.062 158.571 398.062 218.695 438.614 188.163"/></g><rect width="168.076" height="39.375" x="265.661" y="175.882" fill="none"/><text transform="matrix(1 0 0 1 287.0215 184.1621)"><tspan x="0" y="0" font-family="'Consolas'" font-size="12">git checkout HEAD~1</tspan><tspan x="56.08" y="9" font-family="'Consolas'" font-size="12">or </tspan><tspan x="-3.299" y="18" font-family="'Consolas'" font-size="12">git checkout f22b25e</tspan></text></g><rect width="147" height="17" x="92" y="286" fill="none"/><text font-family="'Helvetica'" font-size="12" transform="matrix(1 0 0 1 139.1562 294.6279)">repository</text></g></svg>