<svg xmlns="http://www.w3.org/2000/svg" xmlns:svg="http://www.w3.org/2000/svg" id="svg9213" width="622" height="355" x="0" y="0" enable-background="new 0 0 622 355" version="1.1" viewBox="0 0 622 355" xml:space="preserve"><metadata id="metadata9380"/><g id="Layer_5"><path id="path9216" fill="#B5B5B5" stroke="#FFF" stroke-miterlimit="10" d="M610,23c0-8.284-6.716-15-15-15H210c-8.284,0-15,6.716-15,15v297 c0,8.284,6.716,15,15,15h385c8.284,0,15-6.716,15-15V23z"/><rect id="rect9218" width="70" height="28" x="210" y="21" fill="none"/><text id="text9220" font-family="'Consolas'" font-size="18" transform="matrix(1 0 0 1 210 33.4199)">.git</text></g><g id="Layer_3"><g id="g9223"><linearGradient id="SVGID_1_" x1="331.499" x2="331.499" y1="153" y2="208.248" gradientUnits="userSpaceOnUse"><stop style="stop-color:#c4c4c4" id="stop9226" offset=".098"/><stop style="stop-color:#686868" id="stop9228" offset=".533"/><stop style="stop-color:#000" id="stop9230" offset="1"/></linearGradient><path id="path9232" fill="url(#SVGID_1_)" stroke="#231F20" stroke-miterlimit="10" d="M281.453,207.219c0-9.264,22.404-16.777,50.047-16.777 s50.045,7.514,50.045,16.777v1.029c0,0,0-2.115,0-3.117c0-1.007,0-35.744,0-35.744v0.393c0-9.27-22.402-16.779-50.045-16.779 s-50.047,7.51-50.047,16.779v-0.393c0,0,0,34.519,0,35.732c0,1.205,0,3.129,0,3.129V207.219z"/><g id="g9234"><path id="path9236" fill="#FFF" stroke="#231F20" stroke-miterlimit="10" d="M381.545,169.387c0,0,0,34.737,0,35.744 c0,1.002,0.355,3.117,0.355,3.117c0,9.27-22.758,16.779-50.4,16.779s-50.4-7.51-50.4-16.779c0,0,0.354-1.924,0.354-3.129 c0-1.214,0-35.732,0-35.732c0,9.273,22.404,16.784,50.047,16.784S381.545,178.66,381.545,169.387z"/></g></g><g id="g9238"><polygon id="polygon9240" fill="#FFF" stroke="#000" stroke-miterlimit="10" points="369.719 149.979 310.411 149.979 297.235 164.473 356.542 164.473"/><line id="line9242" x1="310.411" x2="359.165" y1="155.908" y2="155.908" fill="none" stroke="#70BF41" stroke-width="2"/></g><g id="g9244"><polygon id="polygon9246" fill="#FFF" stroke="#000" stroke-miterlimit="10" points="371.029 165.753 311.722 165.753 298.546 180.247 357.853 180.247"/><line id="line9248" x1="312.722" x2="361.476" y1="169.683" y2="169.683" fill="none" stroke="#B285BC" stroke-width="2"/><line id="line9250" x1="308.722" x2="357.476" y1="174.683" y2="174.683" fill="none" stroke="#B285BC" stroke-width="2"/></g></g><g id="Layer_4"><linearGradient id="SVGID_2_" x1="547.392" x2="547.392" y1="144.66" y2="199.912" gradientUnits="userSpaceOnUse"><stop style="stop-color:#c4c4c4" id="stop9254" offset=".098"/><stop style="stop-color:#686868" id="stop9256" offset=".533"/><stop style="stop-color:#000" id="stop9258" offset="1"/></linearGradient><path id="path9260" fill="url(#SVGID_2_)" stroke="#231F20" stroke-miterlimit="10" d="M497.345,198.883c0-9.268,22.407-16.781,50.047-16.781 c27.641,0,50.047,7.514,50.047,16.781v1.029c0,0,0-2.117,0-3.12s0-35.739,0-35.739v0.389c0-9.268-22.406-16.781-50.047-16.781 c-27.64,0-50.047,7.514-50.047,16.781v-0.389c0,0,0,34.52,0,35.729s0,3.131,0,3.131V198.883z"/><g id="g9262"><path id="path9264" fill="#FFF" stroke="#231F20" stroke-miterlimit="10" d="M597.235,238.283c0,0,0,34.738,0,35.74s0.354,3.121,0.354,3.121 c0,9.268-22.76,16.779-50.4,16.779c-27.64,0-50.399-7.512-50.399-16.779c0,0,0.353-1.924,0.353-3.133s0-35.729,0-35.729 c0,9.268,22.407,16.781,50.047,16.781C574.829,255.064,597.235,247.551,597.235,238.283z"/></g><g id="g9266"><path id="path9268" fill="#FFF" stroke="#231F20" stroke-miterlimit="10" d="M597.235,199.602c0,0,0,34.736,0,35.738s0.354,3.121,0.354,3.121 c0,9.268-22.76,16.779-50.4,16.779c-27.64,0-50.399-7.512-50.399-16.779c0,0,0.353-1.924,0.353-3.133s0-35.727,0-35.727 c0,9.268,22.407,16.779,50.047,16.779C574.829,216.381,597.235,208.869,597.235,199.602z"/></g><g id="g9270"><path id="path9272" fill="#FFF" stroke="#231F20" stroke-miterlimit="10" d="M597.235,160.629c0,0,0,34.736,0,35.738 c0,1.003,0.354,3.121,0.354,3.121c0,9.268-22.76,16.781-50.4,16.781c-27.64,0-50.399-7.514-50.399-16.781 c0,0,0.353-1.923,0.353-3.132s0-35.728,0-35.728c0,9.268,22.407,16.779,50.047,16.779 C574.829,177.408,597.235,169.896,597.235,160.629z"/></g><g id="g9274"><polygon id="polygon9276" fill="#FFF" stroke="#000" stroke-miterlimit="10" points="584.086 151.774 524.778 151.774 511.603 166.269 570.909 166.269"/><line id="line9278" x1="525.778" x2="574.532" y1="155.704" y2="155.704" fill="none" stroke="#B285BC" stroke-width="2"/><line id="line9280" x1="521.778" x2="570.532" y1="160.704" y2="160.704" fill="none" stroke="#B285BC" stroke-width="2"/></g><g id="g9282"><polygon id="polygon9284" fill="#FFF" stroke="#000" stroke-miterlimit="10" points="582.775 136 523.468 136 510.292 150.494 569.599 150.494"/><line id="line9286" x1="523.468" x2="572.222" y1="141.93" y2="141.93" fill="none" stroke="#70BF41" stroke-width="2"/></g></g><g id="Layer_1"><g id="g9289"><rect id="rect9291" width="100" height="128" x="24" y="22" fill="#DCDEE0"/><rect id="rect9293" width="100" height="128" x="24" y="22" fill="none" stroke="#85888D" stroke-width="2"/><line id="line9295" x1="37" x2="111" y1="42" y2="42" fill="none" stroke="#000" stroke-width="2"/><line id="line9297" x1="37" x2="111" y1="48" y2="48" fill="none" stroke="#000" stroke-width="2"/><line id="line9299" x1="37" x2="111" y1="54" y2="54" fill="none" stroke="#000" stroke-width="2"/><line id="line9301" x1="37" x2="111" y1="66" y2="66" fill="none" stroke="#70BF41" stroke-width="2"/></g><rect id="rect9303" width="92.743" height="14" x="27.628" y="136" fill="none"/><text id="text9305" font-family="'Consolas'" font-size="12" transform="matrix(1 0 0 1 44.3105 144.2803)">FILE1.txt</text><g id="g9307"><rect id="rect9309" width="100" height="128" x="24" y="203" fill="#DCDEE0"/><rect id="rect9311" width="100" height="128" x="24" y="203" fill="none" stroke="#85888D" stroke-width="2"/><line id="line9313" x1="37" x2="111" y1="223" y2="223" fill="none" stroke="#000" stroke-width="2"/><line id="line9315" x1="37" x2="111" y1="229" y2="229" fill="none" stroke="#000" stroke-width="2"/><line id="line9317" x1="37" x2="111" y1="235" y2="235" fill="none" stroke="#000" stroke-width="2"/><line id="line9319" x1="37" x2="111" y1="264.514" y2="264.514" fill="none" stroke="#000" stroke-width="2"/><line id="line9321" x1="37" x2="111" y1="270.514" y2="270.514" fill="none" stroke="#000" stroke-width="2"/><line id="line9323" x1="37" x2="111" y1="276.514" y2="276.514" fill="none" stroke="#000" stroke-width="2"/><line id="line9325" x1="37" x2="111" y1="247" y2="247" fill="none" stroke="#B285BC" stroke-width="2"/><line id="line9327" x1="37" x2="111" y1="253" y2="253" fill="none" stroke="#B285BC" stroke-width="2"/><rect id="rect9329" width="92.743" height="14" x="27.628" y="317" fill="none"/><text id="text9331" font-family="'Consolas'" font-size="12" transform="matrix(1 0 0 1 44.3105 325.2803)">FILE2.txt</text></g></g><rect style="fill:none" id="rect9364" width="85.542" height="14" x="395.195" y="183.069"/><g id="g9403"><g id="g9358"><rect id="rect9360" width="45.956" height="30.604" x="399.466" y="173.768" style="fill:#45beee"/><polygon id="polygon9362" points="482.614 188.163 442.062 158.571 442.062 218.695" style="fill:#45beee"/></g><text id="text9366" x="404.978" y="191.35" font-size="12" style="font-size:12px;font-family:Consolas">git commit</text></g><rect style="fill:none" id="rect9368" width="147" height="17" x="257" y="235.014"/><text style="font-size:12px;font-family:Helvetica" id="text9370" x="297.477" y="243.642" font-size="12">staging area</text><rect style="fill:none" id="rect9372" width="147" height="17" x="475" y="306"/><text style="font-size:12px;font-family:Helvetica" id="text9374" x="522.156" y="314.628" font-size="12">repository</text><g id="g9437"><g id="g9411" transform="translate(-212.84669,28.971837)"><rect style="fill:#45beee" id="rect9413" width="88.575" height="30.604" x="356.847" y="173.768"/><polygon style="fill:#45beee" id="polygon9415" points="442.062 218.695 482.614 188.163 442.062 158.571"/></g><text style="font-size:12px;font-family:Consolas" id="text9417" x="148.132" y="220.321" font-size="12">git add FILE2.txt</text></g><g id="g9443" transform="translate(0,-82)"><g id="g9445" transform="translate(-212.84669,28.971837)"><rect id="rect9447" width="88.575" height="30.604" x="356.847" y="173.768" style="fill:#45beee"/><polygon id="polygon9449" points="442.062 158.571 442.062 218.695 482.614 188.163" style="fill:#45beee"/></g><text id="text9451" x="148.132" y="220.321" font-size="12" style="font-size:12px;font-family:Consolas">git add FILE1.txt</text></g></svg>