<svg xmlns="http://www.w3.org/2000/svg" xmlns:svg="http://www.w3.org/2000/svg" xmlns:xlink="http://www.w3.org/1999/xlink" id="svg4593" width="770" height="500" x="0" y="0" enable-background="new 0 0 622 452" version="1.1" viewBox="0 0 770 500" xml:space="preserve"><metadata id="metadata4778"/><defs id="defs4776"><linearGradient id="SVGID_1_" x1="480.357" x2="480.357" y1="334.872" y2="363.473" gradientTransform="translate(279.43586,-47.971822)" gradientUnits="userSpaceOnUse"><stop style="stop-color:#c4c4c4" id="stop4613" offset=".098"/><stop style="stop-color:#686868" id="stop4615" offset=".533"/><stop style="stop-color:#000" id="stop4617" offset="1"/></linearGradient><linearGradient id="linearGradient5073" x1="537.177" x2="537.177" y1="57.66" y2="112.913" gradientUnits="userSpaceOnUse" xlink:href="#SVGID_3_"/><linearGradient id="linearGradient5457" x1="537.177" x2="537.177" y1="57.66" y2="112.913" gradientUnits="userSpaceOnUse" xlink:href="#SVGID_3_"/></defs><g id="g5357" transform="translate(-4.520231,-9)"><g id="g5130"><rect id="rect4596" width="603.785" height="244" x="7" y="12" stroke-miterlimit="10" style="fill:#fff;stroke:#000;stroke-miterlimit:10"/><g id="Layer_5"><g id="g4654"><path style="fill:#b5b5b5;stroke:#fff;stroke-miterlimit:10" id="path4656" stroke-miterlimit="10" d="m 598,63 c 0,-8.284 -6.716,-15 -15,-15 l -385,0 c -8.284,0 -15,6.716 -15,15 l 0,167 c 0,8.284 6.716,15 15,15 l 385,0 c 8.284,0 15,-6.716 15,-15 l 0,-167 z"/><rect style="fill:none" id="rect4658" width="425" height="70.269" x="197" y="59"/><text id="text4660" transform="translate(197,71.4199)"><tspan style="font-size:18px;font-family:Consolas" id="tspan4662" x="0" y="0" font-size="18">.git</tspan><tspan style="font-size:10.80000019px;font-family:Consolas" id="tspan4664" x="0" y="21.6" font-size="10.8">origin https://github.com/vlad/planets.git</tspan></text></g><rect style="fill:none" id="rect4666" width="195.585" height="24.449" x="16" y="19"/><text style="font-size:13.5px;font-family:Helvetica" id="text4668" font-size="13.5" transform="translate(16,28.707)">~/vlad/planets</text></g><g id="Layer_1"><g id="g4721"><rect style="fill:#dcdee0" id="rect4723" width="100" height="128" x="24" y="85"/><rect style="fill:none;stroke:#85888d;stroke-width:2" id="rect4725" width="100" height="128" x="24" y="85"/><line style="fill:none;stroke:#000;stroke-width:2" id="line4727" x1="37" x2="111" y1="105" y2="105"/><line style="fill:none;stroke:#000;stroke-width:2" id="line4729" x1="37" x2="111" y1="111" y2="111"/><line style="fill:none;stroke:#000;stroke-width:2" id="line4731" x1="37" x2="111" y1="117" y2="117"/><line style="fill:none;stroke:#70bf41;stroke-width:2" id="line4733" x1="37" x2="111" y1="129" y2="129"/></g></g><rect id="rect4742" width="52.743" height="14" x="164" y="146.069" style="fill:none"/><g id="g5114"><g id="g4736"><rect style="fill:#45beee" id="rect4738" width="45.956" height="30.604" x="150.871" y="136.768"/><polygon style="fill:#45beee" id="polygon4740" points="193.467 181.695 234.02 151.163 193.467 121.571"/></g><text style="font-size:12px;font-family:Consolas" id="text4744" x="164" y="154.35" font-size="12">git add</text></g><rect id="rect4752" width="85.542" height="14" x="376.98" y="146.069" style="fill:none"/><g id="g5108"><g id="g4746"><rect style="fill:#45beee" id="rect4748" width="45.956" height="30.604" x="381.251" y="136.768"/><polygon style="fill:#45beee" id="polygon4750" points="423.847 181.695 464.399 151.163 423.847 121.571"/></g><text style="font-size:12px;font-family:Consolas" id="text4754" x="386.764" y="154.35" font-size="12">git commit</text></g><rect id="rect4766" width="147" height="17" x="229" y="206" style="fill:none"/><g id="g5093"><g id="Layer_3"><g id="g4671"><linearGradient id="SVGID_2_" x1="303.499" x2="303.499" y1="123.986" y2="179.235" gradientUnits="userSpaceOnUse"><stop style="stop-color:#c4c4c4" id="stop4674" offset=".098"/><stop style="stop-color:#686868" id="stop4676" offset=".533"/><stop style="stop-color:#000" id="stop4678" offset="1"/></linearGradient><path style="fill:url(#SVGID_2_);stroke:#231f20;stroke-miterlimit:10" id="path4680" stroke-miterlimit="10" d="m 253.453,178.205 c 0,-9.264 22.404,-16.777 50.047,-16.777 27.643,0 50.045,7.514 50.045,16.777 l 0,1.029 c 0,0 0,-2.115 0,-3.117 0,-1.007 0,-35.745 0,-35.745 l 0,0.394 c 0,-9.27 -22.402,-16.78 -50.045,-16.78 -27.643,0 -50.047,7.51 -50.047,16.78 l 0,-0.394 c 0,0 0,34.519 0,35.733 0,1.205 0,3.129 0,3.129 l 0,-1.029 z"/><g id="g4682"><path style="fill:#fff;stroke:#231f20;stroke-miterlimit:10" id="path4684" stroke-miterlimit="10" d="m 353.545,140.373 c 0,0 0,34.738 0,35.745 0,1.002 0.355,3.117 0.355,3.117 0,9.27 -22.758,16.779 -50.4,16.779 -27.642,0 -50.4,-7.51 -50.4,-16.779 0,0 0.354,-1.924 0.354,-3.129 0,-1.214 0,-35.733 0,-35.733 0,9.274 22.404,16.785 50.047,16.785 27.643,0 50.044,-7.511 50.044,-16.785 z"/></g></g><g id="g4686"><polygon style="fill:#fff;stroke:#000;stroke-miterlimit:10" id="polygon4688" stroke-miterlimit="10" points="341.719 134.965 282.411 134.965 269.235 149.459 328.542 149.459"/><line style="fill:none;stroke:#70bf41;stroke-width:2" id="line4690" x1="282.411" x2="331.165" y1="140.894" y2="140.894"/></g></g><text style="font-size:12px;font-family:Helvetica" id="text4768" x="269.477" y="214.628" font-size="12">staging area</text></g><rect id="rect4770" width="147" height="17" x="464.785" y="219" style="fill:none"/><g id="g5075"><g id="Layer_4"><linearGradient id="SVGID_3_" x1="537.177" x2="537.177" y1="57.66" y2="112.913" gradientUnits="userSpaceOnUse"><stop style="stop-color:#c4c4c4" id="stop4694" offset=".098"/><stop style="stop-color:#686868" id="stop4696" offset=".533"/><stop style="stop-color:#000" id="stop4698" offset="1"/></linearGradient><path style="fill:url(#linearGradient5457);stroke:#231f20;stroke-miterlimit:10" id="path4700" stroke-miterlimit="10" d="m 487.13,111.882 c 0,-9.268 22.407,-16.781 50.047,-16.781 27.641,0 50.047,7.513 50.047,16.781 l 0,1.03 c 0,0 0,-2.118 0,-3.121 0,-1.003 0,-35.739 0,-35.739 l 0,0.388 c 0,-9.268 -22.406,-16.781 -50.047,-16.781 -27.64,0 -50.047,7.513 -50.047,16.781 l 0,-0.388 c 0,0 0,34.519 0,35.728 0,1.209 0,3.132 0,3.132 l 0,-1.03 z"/><g id="g4702"><path style="fill:#fff;stroke:#231f20;stroke-miterlimit:10" id="path4704" stroke-miterlimit="10" d="m 587.021,151.283 c 0,0 0,34.738 0,35.74 0,1.002 0.354,3.121 0.354,3.121 0,9.268 -22.76,16.779 -50.4,16.779 -27.64,0 -50.399,-7.512 -50.399,-16.779 0,0 0.353,-1.924 0.353,-3.133 0,-1.209 0,-35.729 0,-35.729 0,9.268 22.407,16.781 50.047,16.781 27.638,0.001 50.045,-7.512 50.045,-16.78 z"/></g><g id="g4706"><path style="fill:#fff;stroke:#231f20;stroke-miterlimit:10" id="path4708" stroke-miterlimit="10" d="m 587.021,112.601 c 0,0 0,34.736 0,35.739 0,1.002 0.354,3.121 0.354,3.121 0,9.268 -22.76,16.779 -50.4,16.779 -27.64,0 -50.399,-7.512 -50.399,-16.779 0,0 0.353,-1.923 0.353,-3.132 0,-1.209 0,-35.728 0,-35.728 0,9.268 22.407,16.78 50.047,16.78 27.638,0 50.045,-7.512 50.045,-16.78 z"/></g><g id="g4710"><path style="fill:#fff;stroke:#231f20;stroke-miterlimit:10" id="path4712" stroke-miterlimit="10" d="m 587.021,73.628 c 0,0 0,34.737 0,35.739 0,1.002 0.354,3.12 0.354,3.12 0,9.269 -22.76,16.781 -50.4,16.781 -27.64,0 -50.399,-7.513 -50.399,-16.781 0,0 0.353,-1.922 0.353,-3.131 0,-1.209 0,-35.728 0,-35.728 0,9.268 22.407,16.78 50.047,16.78 27.638,0.001 50.045,-7.512 50.045,-16.78 z"/></g><g id="g4714"><polygon style="fill:#fff;stroke:#000;stroke-miterlimit:10" id="polygon4716" stroke-miterlimit="10" points="573.216 66.381 513.908 66.381 500.732 80.875 560.039 80.875"/><line style="fill:none;stroke:#70bf41;stroke-width:2" id="line4718" x1="513.908" x2="562.662" y1="72.311" y2="72.311"/></g></g><text style="font-size:12px;font-family:Helvetica" id="text4772" x="511.941" y="227.628" font-size="12">repository</text></g><rect style="fill:none" id="rect4977" width="147" height="17" x="464.785" y="219"/></g><g id="g5323" transform="translate(53.968319,0)"><g id="g5196" transform="translate(96.572143,0)"><rect id="rect4811" width="603.785" height="244" x="7" y="262" stroke-miterlimit="10" style="fill:#fff;stroke:#000;stroke-miterlimit:10"/><path id="path4817" stroke-miterlimit="10" d="m 598,313 c 0,-8.284 -6.716,-15 -15,-15 l -385,0 c -8.284,0 -15,6.716 -15,15 l 0,167 c 0,8.284 6.716,15 15,15 l 385,0 c 8.284,0 15,-6.716 15,-15 l 0,-167 z" style="fill:#b5b5b5;stroke:#fff;stroke-miterlimit:10"/><rect id="rect4819" width="425" height="70.269" x="197" y="309" style="fill:none"/><text id="text4821" x="197" y="321.42"><tspan id="tspan4823" x="197" y="321.42" font-size="18" style="font-size:18px;font-family:Consolas">.git</tspan></text><rect style="fill:none" id="rect4827" width="195.585" height="24.449" x="16" y="269"/><text style="font-size:13.5px;font-family:Helvetica" id="text4829" x="16" y="278.707" font-size="13.5">https://github.com/vlad/planets.git</text><g id="g5055" transform="translate(0,250)"><g id="g5023"><linearGradient id="linearGradient5025" x1="537.177" x2="537.177" y1="57.66" y2="112.913" gradientUnits="userSpaceOnUse"><stop style="stop-color:#c4c4c4" id="stop5027" offset=".098"/><stop style="stop-color:#686868" id="stop5029" offset=".533"/><stop style="stop-color:#000" id="stop5031" offset="1"/></linearGradient><path id="path5033" stroke-miterlimit="10" d="m 487.13,111.882 c 0,-9.268 22.407,-16.781 50.047,-16.781 27.641,0 50.047,7.513 50.047,16.781 l 0,1.03 c 0,0 0,-2.118 0,-3.121 0,-1.003 0,-35.739 0,-35.739 l 0,0.388 c 0,-9.268 -22.406,-16.781 -50.047,-16.781 -27.64,0 -50.047,7.513 -50.047,16.781 l 0,-0.388 c 0,0 0,34.519 0,35.728 0,1.209 0,3.132 0,3.132 l 0,-1.03 z" style="fill:url(#linearGradient5073);stroke:#231f20;stroke-miterlimit:10"/><g id="g5035"><path id="path5037" stroke-miterlimit="10" d="m 587.021,151.283 c 0,0 0,34.738 0,35.74 0,1.002 0.354,3.121 0.354,3.121 0,9.268 -22.76,16.779 -50.4,16.779 -27.64,0 -50.399,-7.512 -50.399,-16.779 0,0 0.353,-1.924 0.353,-3.133 0,-1.209 0,-35.729 0,-35.729 0,9.268 22.407,16.781 50.047,16.781 27.638,0.001 50.045,-7.512 50.045,-16.78 z" style="fill:#fff;stroke:#231f20;stroke-miterlimit:10"/></g><g id="g5039"><path id="path5041" stroke-miterlimit="10" d="m 587.021,112.601 c 0,0 0,34.736 0,35.739 0,1.002 0.354,3.121 0.354,3.121 0,9.268 -22.76,16.779 -50.4,16.779 -27.64,0 -50.399,-7.512 -50.399,-16.779 0,0 0.353,-1.923 0.353,-3.132 0,-1.209 0,-35.728 0,-35.728 0,9.268 22.407,16.78 50.047,16.78 27.638,0 50.045,-7.512 50.045,-16.78 z" style="fill:#fff;stroke:#231f20;stroke-miterlimit:10"/></g><g id="g5043"><path id="path5045" stroke-miterlimit="10" d="m 587.021,73.628 c 0,0 0,34.737 0,35.739 0,1.002 0.354,3.12 0.354,3.12 0,9.269 -22.76,16.781 -50.4,16.781 -27.64,0 -50.399,-7.513 -50.399,-16.781 0,0 0.353,-1.922 0.353,-3.131 0,-1.209 0,-35.728 0,-35.728 0,9.268 22.407,16.78 50.047,16.78 27.638,0.001 50.045,-7.512 50.045,-16.78 z" style="fill:#fff;stroke:#231f20;stroke-miterlimit:10"/></g><g id="g5047"><polygon id="polygon5049" stroke-miterlimit="10" points="513.908 66.381 500.732 80.875 560.039 80.875 573.216 66.381" style="fill:#fff;stroke:#000;stroke-miterlimit:10"/><line id="line5051" x1="513.908" x2="562.662" y1="72.311" y2="72.311" style="fill:none;stroke:#70bf41;stroke-width:2"/></g></g><text style="font-size:12px;font-family:Helvetica" id="text5053" x="511.941" y="227.628" font-size="12">repository</text></g><rect style="fill:none" id="rect4762" width="165.548" height="14" x="200.719" y="272.824" transform="matrix(0.98046513,0.196693,-0.196693,0.98046513,0,0)"/></g><g id="g5317"><rect id="rect5294" width="122.711" height="30.604" x="277.028" y="16.864" transform="matrix(0,1,-1,0,0,0)" style="fill:#45beee"/><rect style="fill:#45beee" id="rect5124" width="99.924" height="30.604" x="-47.468" y="369.135"/><polygon style="fill:#45beee" id="polygon5126" points="423.847 121.571 423.847 181.695 464.399 151.163" transform="translate(-374.75101,232.367)"/><text id="text5128" x="-33.987" y="386.717" font-size="12" style="font-size:12px;font-family:Consolas">git push origin</text></g></g></g></svg>