<svg xmlns="http://www.w3.org/2000/svg" xmlns:xlink="http://www.w3.org/1999/xlink" id="Layer_1" width="398" height="382" x="0" y="0" enable-background="new 0 0 398 382" version="1.1" viewBox="0 0 398 382" xml:space="preserve"><g><rect width="100" height="127" x="266" y="129" fill="#DCDEE0"/><rect width="100" height="127" x="266" y="129" fill="none" stroke="#85888D" stroke-width="2"/><line x1="279" x2="353" y1="149" y2="149" fill="none" stroke="#000" stroke-width="2"/><line x1="279" x2="353" y1="155" y2="155" fill="none" stroke="#000" stroke-width="2"/><line x1="279" x2="353" y1="160" y2="160" fill="none" stroke="#000" stroke-width="2"/><line x1="279" x2="353" y1="172" y2="172" fill="none" stroke="#70BF41" stroke-width="2"/><rect width="100" height="128" x="32" y="41" fill="#DCDEE0"/><rect width="100" height="128" x="32" y="41" fill="none" stroke="#85888D" stroke-width="2"/><line x1="45" x2="119" y1="61" y2="61" fill="none" stroke="#000" stroke-width="2"/><line x1="45" x2="119" y1="67" y2="67" fill="none" stroke="#000" stroke-width="2"/><line x1="45" x2="119" y1="73" y2="73" fill="none" stroke="#000" stroke-width="2"/><line x1="45" x2="119" y1="85" y2="85" fill="none" stroke="#70BF41" stroke-width="2"/><line x1="162" x2="236" y1="155" y2="155" fill="none" stroke="#70BF41" stroke-width="2"/></g><g><rect width="100" height="128" x="32" y="221" fill="#DCDEE0"/><rect width="100" height="128" x="32" y="221" fill="none" stroke="#85888D" stroke-width="2"/><line x1="45" x2="119" y1="241" y2="241" fill="none" stroke="#000" stroke-width="2"/><line x1="45" x2="119" y1="247" y2="247" fill="none" stroke="#000" stroke-width="2"/><line x1="45" x2="119" y1="253" y2="253" fill="none" stroke="#000" stroke-width="2"/><line x1="45" x2="119" y1="265" y2="265" fill="none" stroke="#C82506" stroke-width="2"/></g><polygon fill="#45BEEE" points="205.711 272.768 210.008 286.822 239.666 246.316 192.428 229.32 196.725 243.375 155.825 255.879 164.812 285.271"/><polygon fill="#45BEEE" points="197.488 131.384 193.191 145.438 240.43 128.443 210.771 87.937 206.475 101.992 165.574 89.487 156.588 118.88"/><g><line x1="45" x2="119" y1="271" y2="271" fill="none" stroke="#C82506" stroke-width="2"/><line x1="162" x2="236" y1="208" y2="208" fill="none" stroke="#C82506" stroke-width="2"/><line x1="162" x2="236" y1="214" y2="214" fill="none" stroke="#C82506" stroke-width="2"/><line x1="279" x2="353" y1="179" y2="179" fill="none" stroke="#C82506" stroke-width="2"/><line x1="279" x2="353" y1="185" y2="185" fill="none" stroke="#C82506" stroke-width="2"/></g></svg>