<svg xmlns="http://www.w3.org/2000/svg" xmlns:xlink="http://www.w3.org/1999/xlink" width="615" height="196.5" x="0" y="0" enable-background="new 0 0 615 196.5" version="1.1" viewBox="0 0 615 196.5" xml:space="preserve"><g id="Layer_1"><g><defs><rect id="SVGID_1_" width="104" height="131.217" x="34.52" y="28.419"/></defs><clipPath id="SVGID_2_"><use overflow="visible" xlink:href="#SVGID_1_"/></clipPath><rect width="100" height="128" x="37" y="30" fill="#DCDEE0" clip-path="url(#SVGID_2_)"/><rect width="100" height="128" x="37" y="30" fill="none" stroke="#85888D" stroke-width="2" clip-path="url(#SVGID_2_)"/></g><g><defs><rect id="SVGID_3_" width="75.805" height="4" x="48.635" y="48.268"/></defs><clipPath id="SVGID_4_"><use overflow="visible" xlink:href="#SVGID_3_"/></clipPath><line x1="50" x2="123" y1="50" y2="50" fill="none" stroke="#000" stroke-width="2" clip-path="url(#SVGID_4_)"/></g><g><defs><rect id="SVGID_5_" width="75.805" height="4" x="48.635" y="54.097"/></defs><clipPath id="SVGID_6_"><use overflow="visible" xlink:href="#SVGID_5_"/></clipPath><line x1="50" x2="123" y1="56" y2="56" fill="none" stroke="#000" stroke-width="2" clip-path="url(#SVGID_6_)"/></g><g><defs><rect id="SVGID_7_" width="75.805" height="4" x="48.635" y="59.926"/></defs><clipPath id="SVGID_8_"><use overflow="visible" xlink:href="#SVGID_7_"/></clipPath><line x1="50" x2="123" y1="62" y2="62" fill="none" stroke="#000" stroke-width="2" clip-path="url(#SVGID_8_)"/></g><g><defs><rect id="SVGID_9_" width="75.805" height="4" x="48.635" y="71.585"/></defs><clipPath id="SVGID_10_"><use overflow="visible" xlink:href="#SVGID_9_"/></clipPath><line x1="50" x2="123" y1="74" y2="74" fill="none" stroke="#000" stroke-width="2" clip-path="url(#SVGID_10_)"/></g><g><rect width="100" height="128" x="258" y="30" fill="#DCDEE0"/><rect width="100" height="128" x="258" y="30" fill="none" stroke="#85888D" stroke-width="2"/><line x1="272" x2="345" y1="50" y2="50" fill="none" stroke="#000" stroke-width="2"/><line x1="272" x2="345" y1="56" y2="56" fill="none" stroke="#000" stroke-width="2"/><line x1="272" x2="345" y1="62" y2="62" fill="none" stroke="#000" stroke-width="2"/><line x1="272" x2="345" y1="74" y2="74" fill="none" stroke="#70BF41" stroke-width="2"/><line x1="160" x2="234" y1="55" y2="55" fill="none" stroke="#70BF41" stroke-width="2"/><rect width="100" height="128" x="481" y="31" fill="#DCDEE0"/><rect width="100" height="128" x="481" y="31" fill="none" stroke="#85888D" stroke-width="2"/><line x1="495" x2="568" y1="51" y2="51" fill="none" stroke="#000" stroke-width="2"/><line x1="495" x2="568" y1="57" y2="57" fill="none" stroke="#000" stroke-width="2"/><line x1="495" x2="568" y1="63" y2="63" fill="none" stroke="#000" stroke-width="2"/><line x1="495" x2="568" y1="75" y2="75" fill="none" stroke="#70BF41" stroke-width="2"/><line x1="495" x2="568" y1="86" y2="86" fill="none" stroke="#70BF41" stroke-width="2"/><line x1="495" x2="568" y1="92" y2="92" fill="none" stroke="#70BF41" stroke-width="2"/><line x1="495" x2="568" y1="98" y2="98" fill="none" stroke="#70BF41" stroke-width="2"/><line x1="383" x2="457" y1="49" y2="49" fill="none" stroke="#70BF41" stroke-width="2"/><line x1="383" x2="457" y1="55" y2="55" fill="none" stroke="#70BF41" stroke-width="2"/><line x1="383" x2="457" y1="61" y2="61" fill="none" stroke="#70BF41" stroke-width="2"/><g><defs><rect id="SVGID_11_" width="88.974" height="66.13" x="157.116" y="65.521"/></defs><clipPath id="SVGID_12_"><use overflow="visible" xlink:href="#SVGID_11_"/></clipPath></g></g><g><g><defs><rect id="SVGID_13_" width="1024" height="768" x="-203" y="-477"/></defs><clipPath id="SVGID_14_"><use overflow="visible" xlink:href="#SVGID_13_"/></clipPath></g></g><g><g><defs><rect id="SVGID_15_" width="88.974" height="66.129" x="375.494" y="73.597"/></defs><clipPath id="SVGID_16_"><use overflow="visible" xlink:href="#SVGID_15_"/></clipPath></g></g><g opacity=".5"><rect width="44.865" height="26.919" x="163.931" y="85.276" fill="#009CFD"/><g><polygon fill="#009CFD" points="200.941 125.429 239.275 98.588 200.941 71.743"/></g></g><g opacity=".5"><rect width="44.865" height="26.919" x="383.016" y="85.276" fill="#009CFD"/><g><polygon fill="#009CFD" points="420.026 125.429 458.359 98.588 420.026 71.743"/></g></g></g></svg>