<svg xmlns="http://www.w3.org/2000/svg" xmlns:xlink="http://www.w3.org/1999/xlink" id="Layer_1" width="384" height="354" x="0" y="0" enable-background="new 0 0 384 354" version="1.1" viewBox="0 0 384 354" xml:space="preserve"><g><defs><rect id="SVGID_1_" width="104" height="131.216" x="31.218" y="108.841"/></defs><clipPath id="SVGID_2_"><use overflow="visible" xlink:href="#SVGID_1_"/></clipPath><rect width="100" height="127" x="33" y="111" fill="#DCDEE0" clip-path="url(#SVGID_2_)"/><rect width="100" height="127" x="33" y="111" fill="none" stroke="#85888D" stroke-width="2" clip-path="url(#SVGID_2_)"/></g><g><defs><rect id="SVGID_3_" width="75.805" height="4" x="45.334" y="128.688"/></defs><clipPath id="SVGID_4_"><use overflow="visible" xlink:href="#SVGID_3_"/></clipPath><line x1="46" x2="120" y1="131" y2="131" fill="none" stroke="#000" stroke-width="2" clip-path="url(#SVGID_4_)"/></g><g><defs><rect id="SVGID_5_" width="75.805" height="4" x="45.334" y="134.519"/></defs><clipPath id="SVGID_6_"><use overflow="visible" xlink:href="#SVGID_5_"/></clipPath><line x1="46" x2="120" y1="137" y2="137" fill="none" stroke="#000" stroke-width="2" clip-path="url(#SVGID_6_)"/></g><g><defs><rect id="SVGID_7_" width="75.805" height="4" x="45.334" y="140.348"/></defs><clipPath id="SVGID_8_"><use overflow="visible" xlink:href="#SVGID_7_"/></clipPath><line x1="46" x2="120" y1="142" y2="142" fill="none" stroke="#000" stroke-width="2" clip-path="url(#SVGID_8_)"/></g><g><defs><rect id="SVGID_9_" width="75.805" height="4" x="45.334" y="152.006"/></defs><clipPath id="SVGID_10_"><use overflow="visible" xlink:href="#SVGID_9_"/></clipPath><line x1="46" x2="120" y1="154" y2="154" fill="none" stroke="#000" stroke-width="2" clip-path="url(#SVGID_10_)"/></g><g><defs><rect id="SVGID_11_" width="104" height="131.216" x="253.198" y="21.402"/></defs><clipPath id="SVGID_12_"><use overflow="visible" xlink:href="#SVGID_11_"/></clipPath><rect width="100" height="128" x="255" y="23" fill="#DCDEE0" clip-path="url(#SVGID_12_)"/><rect width="100" height="128" x="255" y="23" fill="none" stroke="#85888D" stroke-width="2" clip-path="url(#SVGID_12_)"/></g><g><defs><rect id="SVGID_13_" width="75.805" height="4" x="267.314" y="41.25"/></defs><clipPath id="SVGID_14_"><use overflow="visible" xlink:href="#SVGID_13_"/></clipPath><line x1="268" x2="342" y1="43" y2="43" fill="none" stroke="#000" stroke-width="2" clip-path="url(#SVGID_14_)"/></g><g><defs><rect id="SVGID_15_" width="75.805" height="4" x="267.314" y="47.08"/></defs><clipPath id="SVGID_16_"><use overflow="visible" xlink:href="#SVGID_15_"/></clipPath><line x1="268" x2="342" y1="49" y2="49" fill="none" stroke="#000" stroke-width="2" clip-path="url(#SVGID_16_)"/></g><g><defs><rect id="SVGID_17_" width="75.805" height="4" x="267.314" y="52.909"/></defs><clipPath id="SVGID_18_"><use overflow="visible" xlink:href="#SVGID_17_"/></clipPath><line x1="268" x2="342" y1="55" y2="55" fill="none" stroke="#000" stroke-width="2" clip-path="url(#SVGID_18_)"/></g><g><defs><rect id="SVGID_19_" width="75.805" height="4" x="267.314" y="64.567"/></defs><clipPath id="SVGID_20_"><use overflow="visible" xlink:href="#SVGID_19_"/></clipPath><line x1="268" x2="342" y1="67" y2="67" fill="none" stroke="#70BF41" stroke-width="2" clip-path="url(#SVGID_20_)"/></g><g><defs><rect id="SVGID_21_" width="75.806" height="4" x="155.796" y="57.292"/></defs><clipPath id="SVGID_22_"><use overflow="visible" xlink:href="#SVGID_21_"/></clipPath><line x1="157" x2="231" y1="59" y2="59" fill="none" stroke="#70BF41" stroke-width="2" clip-path="url(#SVGID_22_)"/></g><polygon fill="#45BEEE" points="203.427 125.067 207.724 139.122 237.382 98.616 190.144 81.62 194.44 95.675 153.541 108.179 162.527 137.571"/><g><defs><rect id="SVGID_23_" width="104" height="131.216" x="253.198" y="201.382"/></defs><clipPath id="SVGID_24_"><use overflow="visible" xlink:href="#SVGID_23_"/></clipPath><rect width="100" height="128" x="255" y="203" fill="#DCDEE0" clip-path="url(#SVGID_24_)"/><rect width="100" height="128" x="255" y="203" fill="none" stroke="#85888D" stroke-width="2" clip-path="url(#SVGID_24_)"/></g><g><defs><rect id="SVGID_25_" width="75.805" height="4" x="267.314" y="221.229"/></defs><clipPath id="SVGID_26_"><use overflow="visible" xlink:href="#SVGID_25_"/></clipPath><line x1="268" x2="342" y1="223" y2="223" fill="none" stroke="#000" stroke-width="2" clip-path="url(#SVGID_26_)"/></g><g><defs><rect id="SVGID_27_" width="75.805" height="4" x="267.314" y="227.059"/></defs><clipPath id="SVGID_28_"><use overflow="visible" xlink:href="#SVGID_27_"/></clipPath><line x1="268" x2="342" y1="229" y2="229" fill="none" stroke="#000" stroke-width="2" clip-path="url(#SVGID_28_)"/></g><g><defs><rect id="SVGID_29_" width="75.805" height="4" x="267.314" y="232.888"/></defs><clipPath id="SVGID_30_"><use overflow="visible" xlink:href="#SVGID_29_"/></clipPath><line x1="268" x2="342" y1="235" y2="235" fill="none" stroke="#000" stroke-width="2" clip-path="url(#SVGID_30_)"/></g><g><defs><rect id="SVGID_31_" width="75.805" height="4" x="267.314" y="244.547"/></defs><clipPath id="SVGID_32_"><use overflow="visible" xlink:href="#SVGID_31_"/></clipPath><line x1="268" x2="342" y1="247" y2="247" fill="none" stroke="#C82506" stroke-width="2" clip-path="url(#SVGID_32_)"/></g><polygon fill="#45BEEE" points="194.44 238.713 190.144 252.767 237.382 235.771 207.724 195.266 203.427 209.32 162.527 196.815 153.541 226.208"/><g><defs><rect id="SVGID_33_" width="75.805" height="4" x="267.314" y="250.547"/></defs><clipPath id="SVGID_34_"><use overflow="visible" xlink:href="#SVGID_33_"/></clipPath><line x1="268" x2="342" y1="253" y2="253" fill="none" stroke="#C82506" stroke-width="2" clip-path="url(#SVGID_34_)"/></g><g><defs><rect id="SVGID_35_" width="75.806" height="4" x="156.559" y="265.692"/></defs><clipPath id="SVGID_36_"><use overflow="visible" xlink:href="#SVGID_35_"/></clipPath><line x1="158" x2="231" y1="268" y2="268" fill="none" stroke="#C82506" stroke-width="2" clip-path="url(#SVGID_36_)"/></g><g><defs><rect id="SVGID_37_" width="75.806" height="4" x="156.559" y="271.692"/></defs><clipPath id="SVGID_38_"><use overflow="visible" xlink:href="#SVGID_37_"/></clipPath><line x1="158" x2="231" y1="274" y2="274" fill="none" stroke="#C82506" stroke-width="2" clip-path="url(#SVGID_38_)"/></g></svg>